<?xml version="1.0" ?>
<svg
    id="root"
    version="1.1"
    viewBox="0 0 24 24"
    fill="currentColor"
    xmlns="http://www.w3.org/2000/svg"
>

    <path d="M9.683,7.377L8.874,7.432C8.35,6.811 6.883,5.247 5.422,5.247C5.422,5.247 4.223,7.049 5.398,9.453C5.063,9.958 4.856,10.22 4.814,10.823L3.639,10.999L3.767,11.596L4.838,11.438L4.923,11.87L3.967,12.442L4.254,12.984L5.136,12.442C5.836,13.927 7.608,14.682 9.683,14.682C11.759,14.682 13.531,13.927 14.231,12.442L15.113,12.984L15.399,12.442L14.444,11.87L14.529,11.438L15.6,11.596L15.728,10.999L14.553,10.823C14.511,10.22 14.304,9.958 13.969,9.453C15.144,7.049 13.945,5.247 13.945,5.247C12.484,5.247 11.017,6.811 10.493,7.432L9.683,7.377ZM9.075,11.03L10.292,11.03L9.866,11.876C9.988,12.266 10.329,12.552 10.749,12.552C11.25,12.552 11.662,12.139 11.662,11.639L11.966,11.639C11.966,12.306 11.417,12.856 10.749,12.856C10.292,12.856 9.896,12.606 9.683,12.247C9.47,12.606 9.075,12.856 8.618,12.856C7.95,12.856 7.401,12.306 7.401,11.639L7.705,11.639C7.705,12.139 8.117,12.552 8.618,12.552C9.038,12.552 9.379,12.266 9.501,11.876L9.075,11.03ZM7.857,9.204C8.191,9.204 8.466,9.478 8.466,9.812C8.466,10.146 8.191,10.421 7.857,10.421C7.523,10.421 7.248,10.146 7.248,9.812C7.248,9.478 7.523,9.204 7.857,9.204ZM11.51,9.204C11.844,9.204 12.118,9.478 12.118,9.812C12.118,10.146 11.844,10.421 11.51,10.421C11.176,10.421 10.901,10.146 10.901,9.812C10.901,9.478 11.176,9.204 11.51,9.204Z" style="fill-rule:nonzero;"/>
    <g transform="matrix(0.624926,7.39557e-32,2.46519e-32,0.624926,-409.954,-66.2453)">
        <g id="Search">
            <path d="M679.882,132.711C678.931,133.423 677.891,134.014 676.79,134.464C675.115,135.149 673.31,135.5 671.5,135.5C669.69,135.5 667.885,135.149 666.21,134.464C664.594,133.803 663.106,132.837 661.843,131.632C660.623,130.469 659.614,129.087 658.882,127.568C658.257,126.272 657.835,124.88 657.636,123.456C657.422,121.929 657.46,120.366 657.751,118.852C657.988,117.614 658.395,116.408 658.957,115.279C659.657,113.871 660.596,112.583 661.722,111.484C662.848,110.384 664.159,109.475 665.585,108.809C666.784,108.249 668.062,107.861 669.37,107.661C670.016,107.563 670.666,107.514 671.319,107.501C671.5,107.5 671.5,107.5 671.681,107.501C672.334,107.514 672.984,107.563 673.63,107.661C674.938,107.861 676.216,108.249 677.415,108.809C678.892,109.499 680.245,110.45 681.398,111.602C682.51,112.715 683.435,114.014 684.118,115.432C684.692,116.622 685.095,117.893 685.311,119.197C685.544,120.602 685.562,122.045 685.364,123.456C685.164,124.881 684.743,126.272 684.118,127.568C683.725,128.383 683.253,129.159 682.711,129.882L692.914,140.086L690.086,142.914L679.882,132.711ZM671.345,109.501C670.785,109.512 670.227,109.554 669.673,109.638C668.553,109.81 667.458,110.142 666.432,110.621C665.209,111.193 664.085,111.972 663.119,112.915C662.154,113.858 661.348,114.962 660.747,116.17C660.267,117.136 659.918,118.168 659.715,119.229C659.466,120.528 659.433,121.868 659.617,123.178C659.787,124.398 660.149,125.59 660.684,126.7C661.311,128.002 662.176,129.187 663.223,130.185C664.306,131.217 665.581,132.046 666.967,132.613C668.402,133.2 669.949,133.5 671.5,133.5C673.051,133.5 674.598,133.2 676.033,132.613C677.419,132.046 678.694,131.218 679.777,130.185C680.823,129.187 681.689,128.002 682.316,126.7C682.851,125.59 683.212,124.398 683.383,123.178C683.567,121.868 683.534,120.528 683.285,119.229C683.091,118.216 682.764,117.229 682.316,116.3C681.73,115.085 680.938,113.971 679.984,113.017C678.995,112.028 677.835,111.213 676.568,110.621C675.542,110.142 674.447,109.81 673.327,109.638C672.773,109.554 672.215,109.512 671.655,109.501C671.499,109.5 671.5,109.5 671.345,109.501Z"/>
        </g>
    </g>
</svg>