<?xml version="1.0" ?>
<svg
    id="root"
    version="1.1"
    viewBox="0 0 24 24"
    fill="currentColor"
    xmlns="http://www.w3.org/2000/svg"
>

    <g transform="matrix(1.32965,0,0,1.32965,-5.014,-2.51693)">
        <path d="M12.796,4.695L11.986,4.75C11.463,4.129 9.996,2.565 8.535,2.565C8.535,2.565 7.336,4.366 8.51,6.771C8.176,7.276 7.969,7.538 7.926,8.141L6.751,8.317L6.879,8.914L7.95,8.755L8.036,9.188L7.08,9.76L7.366,10.302L8.249,9.76C8.949,11.245 10.72,12 12.796,12C14.872,12 16.643,11.245 17.343,9.76L18.226,10.302L18.512,9.76L17.556,9.188L17.641,8.755L18.713,8.914L18.841,8.317L17.666,8.141C17.623,7.538 17.416,7.276 17.081,6.771C18.256,4.366 17.057,2.565 17.057,2.565C15.596,2.565 14.129,4.129 13.605,4.75L12.796,4.695ZM10.394,10.481C11.188,9.137 11.991,8.474 12.803,8.478C13.614,8.483 14.435,9.155 15.264,10.481L10.394,10.481ZM10.97,6.521C11.304,6.521 11.578,6.796 11.578,7.13C11.578,7.464 11.304,7.739 10.97,7.739C10.636,7.739 10.361,7.464 10.361,7.13C10.361,6.796 10.636,6.521 10.97,6.521ZM14.622,6.521C14.956,6.521 15.231,6.796 15.231,7.13C15.231,7.464 14.956,7.739 14.622,7.739C14.288,7.739 14.013,7.464 14.013,7.13C14.013,6.796 14.288,6.521 14.622,6.521Z" style="fill-rule:nonzero;"/>
    </g>
    <g id="Folder" transform="matrix(0.507763,1.8776e-32,6.25867e-33,0.507763,-282.147,-92.6772)">
        <path d="M594,197.8L564.6,197.8L557.3,208.8L557.3,225.8C557.3,226.4 557.7,226.8 558.3,226.8L600.3,226.8C600.9,226.8 601.3,226.4 601.3,225.8L601.3,208.8L594,197.8ZM599.2,224.8L559.2,224.8L559.2,210.8L572.4,210.8C573.1,214.2 575.5,216.8 579.2,216.8C582.9,216.8 585.3,214.2 586,210.8L599.2,210.8L599.2,224.8ZM584.2,208.8C584.2,212.1 582.5,214.8 579.2,214.8C575.9,214.8 574.2,212.1 574.2,208.8L559.2,208.8L565.2,199.8L593.2,199.8L599.2,208.8L584.2,208.8Z" style="fill-rule:nonzero;"/>
    </g>
</svg>